<?xml version="1.0" encoding="UTF-8" standalone="no"?>
<!-- Generator: Adobe Illustrator 18.1.0, SVG Export Plug-In . SVG Version: 6.00 Build 0)  -->

<svg
   xmlns:dc="http://purl.org/dc/elements/1.1/"
   xmlns:cc="http://creativecommons.org/ns#"
   xmlns:rdf="http://www.w3.org/1999/02/22-rdf-syntax-ns#"
   xmlns:svg="http://www.w3.org/2000/svg"
   xmlns="http://www.w3.org/2000/svg"
   xmlns:sodipodi="http://sodipodi.sourceforge.net/DTD/sodipodi-0.dtd"
   xmlns:inkscape="http://www.inkscape.org/namespaces/inkscape"
   version="1.1"
   id="Ebene_1"
   x="0px"
   y="0px"
   viewBox="0 0 255.75305 112.07611"
   enable-background="new 0 0 960 530.6"
   xml:space="preserve"
   inkscape:version="0.48.5 r10040"
   width="100%"
   height="100%"
   sodipodi:docname="folienhaus_cars-01.svg"><metadata
     id="metadata19"><rdf:RDF><cc:Work
         rdf:about=""><dc:format>image/svg+xml</dc:format><dc:type
           rdf:resource="http://purl.org/dc/dcmitype/StillImage" /></cc:Work></rdf:RDF></metadata><defs
     id="defs17" /><sodipodi:namedview
     pagecolor="#ffffff"
     bordercolor="#666666"
     borderopacity="1"
     objecttolerance="10"
     gridtolerance="10"
     guidetolerance="10"
     inkscape:pageopacity="0"
     inkscape:pageshadow="2"
     inkscape:window-width="1375"
     inkscape:window-height="876"
     id="namedview15"
     showgrid="false"
     inkscape:zoom="1.8915106"
     inkscape:cx="55.227762"
     inkscape:cy="14.082415"
     inkscape:window-x="65"
     inkscape:window-y="24"
     inkscape:window-maximized="1"
     inkscape:current-layer="g3"
     fit-margin-top="0"
     fit-margin-left="0"
     fit-margin-right="0"
     fit-margin-bottom="0" /><g
     id="g3"
     transform="translate(-355.27927,-201.44967)"><g
       id="car"><path
         inkscape:connector-curvature="0"
         id="tires1"
         d="m 388.16338,313.52577 c -8.778,-1.98 -14.718,-7.161 -16.995,-15.873 -2.277,-8.646 0.165,-16.269 7.095,-21.879 7.359,-5.973 15.741,-6.765 24.09,-2.079 7.788,4.389 11.319,11.451 10.857,20.328 -0.429,8.349 -6.435,15.807 -14.619,18.612 -0.891,0.297 -1.815,0.594 -2.739,0.858 -2.574,0.033 -5.115,0.033 -7.689,0.033 z m 17.094,-21.186 c 0.033,-7.557 -6.105,-13.596 -13.695,-13.563 -7.095,0.033 -13.2,6.336 -13.233,13.629 -0.033,7.326 6.006,13.299 13.431,13.299 7.59,0 13.464,-5.808 13.497,-13.365 z" /><path
         inkscape:connector-curvature="0"
         id="cover"
         d="m 493.43338,207.49677 c -2.607,-2.145 -4.686,-3.828 -6.765,-5.511 0.627,-0.924 1.089,-0.429 1.551,-0.165 1.089,0.693 2.178,1.32 3.168,2.112 8.679,6.996 19.272,10.824 28.479,17.028 5.28,3.564 10.824,6.732 16.236,10.131 1.386,0.858 2.772,1.452 4.422,1.584 2.475,0.165 4.455,1.815 6.897,2.376 11.517,2.574 22.902,5.643 33.957,9.801 8.085,3.036 16.038,6.369 22.077,12.903 1.914,2.079 3.498,4.323 4.224,7.095 0.726,2.673 2.64,4.851 3.036,7.722 0.759,5.676 0.396,10.857 -3.795,15.378 -2.046,2.178 -3.993,4.554 -5.313,7.326 -0.396,0.858 -1.089,1.848 -2.145,1.617 -1.287,-0.297 -0.627,-1.584 -0.759,-2.442 -0.066,-0.561 -0.066,-1.122 0,-1.683 1.914,-13.134 -10.758,-24.057 -20.526,-24.882 -10.428,-0.891 -20.196,1.716 -24.849,13.398 -1.188,2.97 -2.64,5.808 -3.729,8.811 -1.353,3.795 -4.158,4.917 -7.821,4.917 -15.708,0 -31.449,-0.198 -47.157,0.099 -24.651,0.462 -49.302,-0.528 -73.92,-0.033 -2.277,0.033 -3.927,-0.528 -3.828,-3.003 0.132,-3.696 -1.683,-6.567 -3.564,-9.438 -3.993,-6.105 -8.943,-10.956 -16.467,-12.507 -12.012,-2.508 -23.067,3.729 -27.687,15.807 -0.132,0.363 -0.297,0.759 -0.396,1.122 -1.155,3.399 -2.31,3.894 -5.346,1.881 -2.97,-1.947 -5.115,-4.785 -7.194,-7.59 -0.132,-0.198 -0.297,-0.462 -0.264,-0.66 0.825,-5.775 -1.287,-11.451 -0.495,-17.226 0.066,-0.396 0.066,-0.891 0.297,-1.122 3.201,-3.399 3.102,-8.019 4.422,-12.111 2.079,-6.468 6.237,-11.649 10.428,-16.731 7.722,-9.405 17.094,-16.896 27.555,-23.034 1.32,-0.792 2.904,-1.353 3.498,-3.069 0.231,-0.693 0.957,-0.759 1.617,-0.759 5.049,-0.066 9.9,-1.617 14.883,-2.079 6.402,-0.627 12.837,-1.122 19.272,-1.749 7.656,-0.759 15.312,-0.132 22.935,0.099 10.89,0.264 21.714,1.584 33.066,4.587 z m 11.286,36.432 c 3.399,0 8.415,-0.033 13.464,0.033 1.419,0 2.277,-0.396 2.508,-1.881 0.099,-0.627 0.33,-1.221 0.594,-1.815 1.65,-3.96 0.891,-6.468 -2.475,-9.042 -17.589,-13.563 -38.148,-17.556 -59.664,-18.48 -3.729,-0.165 -4.818,0.99 -4.653,4.653 0.363,7.953 0.957,15.906 1.419,23.826 0.099,1.584 1.089,1.749 2.277,1.749 14.949,0.099 29.898,1.155 46.53,0.957 z m -55.869,-26.004 c 0,-0.99 0,-1.419 0,-1.815 0.066,-3.036 -0.099,-3.234 -3.234,-3.168 -2.871,0.066 -5.709,0.231 -8.58,0.66 -14.058,1.98 -24.321,9.339 -31.02,21.747 -1.452,2.706 -0.693,3.96 2.343,4.257 12.111,1.221 24.222,2.442 36.333,3.729 2.046,0.198 2.937,-0.627 3.135,-2.607 0.792,-7.788 0.132,-15.609 1.023,-22.803 z m 143.946,36.3 c 1.749,4.62 3.201,8.58 4.719,12.474 0.792,2.046 2.343,3.366 4.323,4.224 1.254,0.528 2.277,0.396 3.135,-0.792 1.485,-2.079 1.353,-5.874 -0.297,-7.755 -3.168,-3.531 -7.161,-5.775 -11.88,-8.151 z m -222.222,-4.686 c -2.178,-0.066 -3.795,0.495 -5.115,1.749 -1.782,1.65 -3.003,3.696 -3.531,6.072 -0.33,1.485 -1.782,3.399 -0.363,4.389 1.683,1.188 3.663,-0.165 5.214,-1.254 0.957,-0.66 1.749,-1.617 2.541,-2.508 1.089,-1.254 2.178,-2.541 3.168,-3.861 0.825,-1.122 2.772,-2.145 2.145,-3.399 -0.693,-1.32 -2.838,-0.924 -4.059,-1.188 z m 95.238,4.917 c 1.221,0 1.947,0 2.64,0 0.495,0 1.023,-0.099 1.155,-0.627 0.165,-0.594 -0.165,-1.056 -0.627,-1.419 -1.188,-0.957 -7.458,-1.287 -8.844,-0.495 -0.528,0.297 -0.924,0.66 -0.825,1.287 0.132,0.726 0.726,0.726 1.287,0.759 1.914,0.198 3.828,0.363 5.214,0.495 z" /><path
         inkscape:connector-curvature="0"
         inkscape:label="#tires2"
         id="path9"
         d="m 596.19538,290.49177 c -0.033,11.748 -9.537,21.285 -21.252,21.285 -11.847,0 -21.45,-9.57 -21.483,-21.417 -0.033,-11.814 9.603,-21.648 21.351,-21.516 12.672,0.165 21.714,10.164 21.384,21.648 z m -34.65,-0.33 c -0.033,7.491 5.775,13.563 13.068,13.629 7.722,0.066 13.662,-5.808 13.728,-13.53 0.033,-7.293 -6.039,-13.398 -13.398,-13.431 -7.392,-0.033 -13.365,5.907 -13.398,13.332 z" /><path
         inkscape:connector-curvature="0"
         id="path11"
         d="m 391.72738,304.74777 c -7.095,0 -12.375,-5.412 -12.342,-12.672 0,-6.93 5.445,-12.243 12.507,-12.243 7.128,0 12.441,5.511 12.441,12.903 -0.033,6.633 -5.709,12.045 -12.606,12.012 z m -3.168,-11.121 c 0.297,2.871 3.036,1.782 4.455,1.815 2.64,0.066 1.683,-2.607 1.98,-4.125 0.198,-0.99 -2.013,-0.594 -1.881,-2.145 0,-0.132 -1.782,-0.165 -2.508,-0.132 -2.739,0.165 -1.452,2.805 -2.046,4.587 z" /><path
         inkscape:connector-curvature="0"
         id="path13"
         d="m 575.14138,277.91877 c 6.633,0 12.408,5.742 12.408,12.276 -0.033,7.095 -5.61,12.54 -12.87,12.54 -6.798,0 -12.375,-5.643 -12.342,-12.54 0.033,-6.831 6.138,-12.804 12.804,-12.276 z m -0.33,8.91 c -1.716,0 -3.828,1.749 -3.432,3.168 0.297,1.023 0.858,2.046 1.353,3.036 0.297,0.594 1.254,0.858 1.914,0.693 1.089,-0.297 1.98,-1.056 3.135,-1.419 0.396,-0.132 0.693,-1.056 0.726,-1.65 0.165,-1.716 -1.947,-3.828 -3.696,-3.828 z" /></g></g></svg>