<?xml version="1.0" encoding="UTF-8" standalone="no"?>
<!-- Generator: Adobe Illustrator 18.1.0, SVG Export Plug-In . SVG Version: 6.00 Build 0)  -->

<svg
   xmlns:dc="http://purl.org/dc/elements/1.1/"
   xmlns:cc="http://creativecommons.org/ns#"
   xmlns:rdf="http://www.w3.org/1999/02/22-rdf-syntax-ns#"
   xmlns:svg="http://www.w3.org/2000/svg"
   xmlns="http://www.w3.org/2000/svg"
   xmlns:sodipodi="http://sodipodi.sourceforge.net/DTD/sodipodi-0.dtd"
   xmlns:inkscape="http://www.inkscape.org/namespaces/inkscape"
   version="1.1"
   id="Ebene_1"
   x="0px"
   y="0px"
   viewBox="0 0 364.64999 149.99992"
   enable-background="new 0 0 1016 511.7"
   xml:space="preserve"
   inkscape:version="0.48.5 r10040"
   width="100%"
   height="100%"
   sodipodi:docname="folienhaus_cars-03.svg"><metadata
     id="metadata57"><rdf:RDF><cc:Work
         rdf:about=""><dc:format>image/svg+xml</dc:format><dc:type
           rdf:resource="http://purl.org/dc/dcmitype/StillImage" /></cc:Work></rdf:RDF></metadata><defs
     id="defs55" /><sodipodi:namedview
     pagecolor="#ffffff"
     bordercolor="#666666"
     borderopacity="1"
     objecttolerance="10"
     gridtolerance="10"
     guidetolerance="10"
     inkscape:pageopacity="0"
     inkscape:pageshadow="2"
     inkscape:window-width="1375"
     inkscape:window-height="876"
     id="namedview53"
     showgrid="false"
     inkscape:zoom="1.2637795"
     inkscape:cx="46.030463"
     inkscape:cy="-81.037525"
     inkscape:window-x="65"
     inkscape:window-y="24"
     inkscape:window-maximized="1"
     inkscape:current-layer="Ebene_1"
     fit-margin-top="0"
     fit-margin-left="0"
     fit-margin-right="0"
     fit-margin-bottom="0" /><g
     id="car"
     transform="matrix(1.3772287,0,0,1.3772287,2.5644324e-5,-3.2093447e-6)"><path
       inkscape:connector-curvature="0"
       id="cover"
       d="m 143.82699,5.61 c -1.815,-2.145 -3.894,-3.267 -5.346,-5.61 2.178,0.726 3.366,2.145 4.686,3.333 2.145,1.947 4.521,3.3 7.359,4.191 6.831,2.145 12.705,6.237 18.843,9.768 8.778,5.049 17.49,10.197 26.433,14.949 4.983,2.673 10.725,3.366 16.17,4.884 12.738,3.564 25.575,6.831 37.62,12.474 4.389,2.046 8.58,4.653 10.989,8.91 3.036,5.379 5.247,11.187 3.663,17.655 -0.231,0.891 -0.462,1.617 -1.287,2.145 -2.178,1.353 -2.574,2.64 -1.584,4.917 1.254,2.937 0.957,3.564 -2.112,4.719 -2.112,0.792 -4.422,1.056 -5.643,3.498 -0.594,1.188 -2.145,1.287 -3.465,1.155 -3.531,-0.33 -6.996,0.231 -10.461,0.759 -2.838,0.429 -3.366,0.033 -3.003,-2.838 0.759,-6.369 -0.495,-12.21 -3.96,-17.556 -5.775,-8.811 -14.685,-12.276 -24.321,-10.758 -9.933,1.551 -17.919,9.801 -19.866,19.371 -0.759,3.729 0.066,7.491 -0.924,11.187 -0.396,1.551 -1.155,2.508 -2.805,2.244 -5.874,-0.957 -11.781,-0.132 -17.688,-0.594 -9.009,-0.726 -18.018,-0.165 -27.027,-0.462 -19.701,-0.594 -39.402,-0.759 -59.103002,-1.089 -6.072,-0.099 -12.111,-0.165 -18.183,-0.264 -1.815,-0.033 -2.013,-0.66 -2.046,-2.244 -0.165,-9.339 -2.805,-17.589 -10.659,-23.463 -13.101,-9.735 -32.47199,-3.003 -36.79499,12.771 -0.858,3.135 -0.99,6.27 -0.99,9.471 0,0.693 0.33,1.782 -0.891,1.848 -0.99,0.066 -1.023,-0.957 -1.155,-1.584 -0.3629999,-2.112 -1.1219999,-3.63 -3.5309999,-4.092 -1.716,-0.33 -2.739,-1.716 -3.3,-3.465 -1.452,-4.488 -2.70600004,-9.009 -3.26700004,-13.695 -0.429,-3.498 -0.33,-6.864 3.16800004,-9.108 3.333,-2.145 2.937,-5.808 3.267,-9.042 0.396,-3.795 0.462,-7.623 0.627,-11.451 0.033,-0.99 0.132,-1.947 0.693,-2.739 3.9929999,-5.676 6.7319999,-12.111 10.8899999,-17.655 2.574,-3.432 5.247,-6.798 7.986,-10.131 0.429,-0.528 1.386,-0.726 2.145,-0.957 8.08499,-2.343 16.43399,-2.937 24.71699,-3.894 12.606,-1.452 25.311,-1.353 37.95,-1.749 9.636002,-0.297 19.272002,0.594 28.908002,1.122 7.623,0.363 15.213,1.65 23.298,3.069 z m 24.783,23.298 c -0.627,-1.188 -1.551,-1.683 -2.376,-2.244 -6.237,-4.224 -12.903,-7.623 -19.701,-10.725 -12.474,-5.709 -26.004,-6.468 -39.369,-7.755 -1.98,-0.198 -2.772,0.627 -2.508,2.64 0.924,7.359 2.64,14.553 4.323,21.747 0.792,3.465 1.287,3.795 4.818,4.092 4.917,0.396 9.834,0.792 14.751,1.155 10.428,0.726 20.823,1.452 31.284,1.452 1.551,0 2.475,0.033 1.386,-2.013 -1.848,-3.531 0.198,-7.161 4.125,-7.788 0.99,-0.165 2.013,-0.33 3.267,-0.561 z m -93.522002,5.94 c 7.92,0.099 13.695,0.66 19.536,0.099 1.881,-0.165 2.64,-0.825 2.673,-2.739 0.099,-7.029 -0.231,-14.025 -0.66,-21.021 -0.198,-3.267 -0.495,-3.465 -3.762,-3.465 -11.484,0 -22.902,0.594 -34.353,1.518 -1.848,0.132 -3.036,0.924 -3.795,2.706 -2.673,6.303 -4.587,12.87 -6.435,19.47 -0.66,2.376 -0.33,2.838 2.145,2.838 8.91,0.033 17.82,0.825 24.651,0.594 z m -26.73,-24.618 c -10.725,1.419 -11.319,1.287 -13.86,10.791 -0.165,0.594 -0.132,1.254 -0.198,1.881 -0.132,1.155 0.231,2.211 0.924,3.135 1.485,1.98 3.036,3.894 4.851,5.577 1.221,1.122 1.716,0.891 2.244,-0.66 2.178,-6.336 4.653,-12.573 7.59,-18.579 0.891,-1.848 0.495,-2.442 -1.551,-2.145 z M 248.56899,54.252 c -1.716,0 -2.739,-0.033 -3.762,0 -1.65,0.099 -3.564,0 -4.026,2.112 -0.429,1.881 1.848,5.874 3.465,6.006 4.587,0.429 9.207,-0.033 13.761,-0.66 1.386,-0.198 1.65,-0.924 0.759,-2.145 -2.739,-3.63 -5.874,-6.336 -10.197,-5.313 z m 2.97,12.606 c 2.475,0.33 5.544,-0.33 8.646,-0.561 0.759,-0.066 1.716,-0.231 1.617,-1.353 -0.066,-0.726 -0.627,-1.056 -1.386,-0.957 -4.983,0.693 -9.999,0.594 -14.982,0.759 -0.66,0.033 -1.65,-0.198 -1.584,0.891 0.066,0.759 0.792,1.188 1.584,1.188 1.782,0.033 3.63,0.033 6.105,0.033 z m -132.561,-20.031 c 1.089,-0.099 2.244,-0.033 3.3,-0.297 0.99,-0.231 1.551,-0.957 0.561,-1.914 -1.056,-0.99 -7.788,-1.221 -9.075,-0.363 -0.429,0.264 -0.792,0.594 -0.759,1.122 0.066,0.726 0.66,0.792 1.221,0.924 1.584,0.33 3.168,0.495 4.752,0.528 z M 52.350988,42.9 c 0,-0.033 0,-0.033 0,0 1.353,-0.033 2.706,0 4.059,-0.033 0.561,-0.033 1.122,-0.33 1.254,-0.957 0.132,-0.66 -0.297,-1.188 -0.825,-1.287 -2.838,-0.462 -5.676,-0.693 -8.481,0.066 -0.561,0.132 -1.023,0.561 -0.957,1.221 0.066,0.792 0.726,0.99 1.386,0.99 1.188,0 2.376,0 3.564,0 z" /><path
       inkscape:connector-curvature="0"
       id="tires2"
       d="m 234.11499,86.79 c 0.099,11.979 -9.438,21.714 -21.153,22.11 -13.035,0.462 -22.704,-10.329 -22.869,-21.483 -0.165,-12.21 9.306,-22.044 20.757,-22.605 12.111,-0.561 23.529,9.24 23.265,21.978 z m -8.118,0.165 c 0,-7.755 -6.006,-13.959 -13.596,-14.025 -7.722,-0.066 -14.289,6.27 -14.289,13.761 0,7.821 6.303,14.157 14.124,14.157 7.59,0 13.761,-6.237 13.761,-13.893 z" /><path
       inkscape:connector-curvature="0"
       id="tires1"
       d="m 58.257988,86.691 c 0,12.639 -9.504,22.044 -21.978,22.209 -11.91299,0.132 -22.27499,-10.098 -21.97799,-22.539 0.231,-11.253 9.867,-21.813 22.57199,-21.483 11.781,0.297 21.417,9.834 21.384,21.813 z m -8.019,0.396 c 0,-7.92 -6.204,-14.19 -14.058,-14.124 -7.49099,0.033 -13.85999,6.402 -13.85999,13.926 0,7.623 6.402,14.025 14.02499,13.992 7.722,-0.066 13.926,-6.204 13.893,-13.794 z" /><path
       inkscape:connector-curvature="0"
       id="path9"
       d="m 211.57599,99.66 c -0.99,-0.759 -3.102,0.528 -3.333,-1.65 -0.198,-1.782 2.442,-5.61 3.564,-5.511 1.32,0.099 2.739,3.399 2.475,5.775 -0.231,1.65 -1.584,1.221 -2.706,1.386 z" /><path
       inkscape:connector-curvature="0"
       id="path11"
       d="m 206.19699,97.812 c -1.023,0.033 -4.257,-2.772 -4.323,-3.63 0,-0.066 -0.033,-0.165 0,-0.231 0.132,-0.891 5.445,-3.531 6.237,-3.069 0.561,0.297 1.221,0.726 1.089,1.419 -0.396,1.947 -1.419,3.663 -2.541,5.28 -0.099,0.165 -0.396,0.198 -0.462,0.231 z" /><path
       inkscape:connector-curvature="0"
       id="path13"
       d="m 215.30499,86.79 c 0.033,1.881 -1.188,3.267 -2.97,3.333 -1.749,0.066 -3.3,-1.32 -3.366,-3.003 -0.099,-1.914 1.254,-3.333 3.168,-3.465 1.782,-0.099 3.135,1.254 3.168,3.135 z" /><path
       inkscape:connector-curvature="0"
       id="path15"
       d="m 222.56499,87.087 c -1.353,-1.122 -4.587,1.353 -5.115,-2.31 -0.099,-0.759 4.125,-3.663 5.214,-3.696 0.924,-0.033 2.244,2.838 2.145,4.653 -0.033,1.188 -0.396,1.419 -2.244,1.353 z" /><path
       inkscape:connector-curvature="0"
       id="path17"
       d="m 214.41399,93.291 c -0.165,-0.99 0.396,-1.485 1.155,-1.914 0.759,-0.462 1.353,-0.132 1.914,0.363 0.462,0.429 0.957,0.825 1.419,1.287 0.792,0.825 2.541,1.32 2.046,2.607 -0.561,1.551 -2.244,2.376 -3.828,2.97 -0.726,0.264 -1.32,0 -1.518,-0.726 -0.462,-1.518 -0.792,-3.069 -1.188,-4.587 z" /><path
       inkscape:connector-curvature="0"
       id="path19"
       d="m 201.37899,86.196 c 1.386,1.254 4.752,-1.287 5.313,2.409 0.099,0.759 -4.587,3.993 -5.445,3.564 -1.848,-0.924 -1.551,-2.904 -1.716,-4.554 -0.099,-1.056 0.396,-1.683 1.848,-1.419 z" /><path
       inkscape:connector-curvature="0"
       id="path21"
       d="m 204.97599,85.602 c -1.254,-1.155 -4.521,0.858 -4.818,-2.31 -0.132,-1.551 0.627,-3.531 2.508,-4.224 0.792,-0.297 4.917,3.993 4.587,4.719 -0.363,0.858 -0.429,2.244 -2.277,1.815 z" /><path
       inkscape:connector-curvature="0"
       id="path23"
       d="m 219.66099,87.516 c 0.627,0.099 1.287,0.132 1.881,0.33 0.99,0.297 2.574,-0.594 2.871,0.924 0.33,1.683 -0.462,3.267 -1.485,4.653 -0.132,0.165 -0.363,0.33 -0.561,0.363 -0.99,0.198 -5.115,-3.531 -5.016,-4.554 0.165,-1.353 0.924,-1.947 2.31,-1.716 z" /><path
       inkscape:connector-curvature="0"
       id="path25"
       d="m 222.36699,79.695 c 0.033,0.462 -0.198,0.759 -0.561,0.957 -1.386,0.792 -2.772,1.551 -4.158,2.31 -0.759,0.429 -1.353,0.132 -1.881,-0.429 -0.528,-0.561 -0.858,-1.122 -0.462,-1.914 0.66,-1.254 1.254,-2.574 1.881,-3.828 0.231,-0.429 0.495,-0.792 1.056,-0.792 1.056,0 4.092,2.706 4.125,3.696 z" /><path
       inkscape:connector-curvature="0"
       id="path27"
       d="m 210.55299,80.091 c 0.066,1.056 -0.561,1.584 -1.353,2.046 -0.858,0.495 -1.32,-0.033 -1.815,-0.528 -0.396,-0.396 -0.858,-0.726 -1.188,-1.155 -0.759,-1.023 -2.508,-1.848 -1.848,-3.234 0.726,-1.518 2.607,-1.914 4.191,-2.376 0.759,-0.231 0.957,0.297 1.089,0.858 0.297,1.452 0.594,2.904 0.924,4.389 z" /><path
       inkscape:connector-curvature="0"
       id="path29"
       d="m 213.06099,74.151 c 0.33,0.066 0.957,0.231 1.584,0.33 1.947,0.264 2.871,0.957 1.485,2.937 -0.594,0.825 -0.957,1.815 -1.386,2.772 -0.528,1.122 -1.419,1.056 -2.409,0.924 -1.089,-0.165 -1.089,-0.957 -1.155,-1.749 -0.099,-1.023 -0.264,-2.046 -0.429,-3.069 -0.231,-1.584 0.462,-2.277 2.31,-2.145 z" /><path
       inkscape:connector-curvature="0"
       id="path31"
       d="m 23.541998,86.46 c 0.66,-0.957 -0.693,-3.201 1.749,-3.3 2.178,-0.066 5.478,2.145 5.445,3.366 -0.033,1.419 -2.376,2.541 -5.445,2.607 -1.32,0.033 -1.782,-0.627 -1.749,-2.673 z" /><path
       inkscape:connector-curvature="0"
       id="path33"
       d="m 39.546988,86.889 c 0,1.782 -1.32,3.168 -3.102,3.234 -1.782,0.066 -3.366,-1.452 -3.432,-3.234 -0.033,-1.716 1.584,-3.3 3.399,-3.234 1.716,0.033 3.135,1.518 3.135,3.234 z" /><path
       inkscape:connector-curvature="0"
       id="path35"
       d="m 28.986998,76.692 c 0.627,0.066 0.858,0.462 1.122,0.891 0.693,1.155 1.353,2.343 2.046,3.498 0.528,0.858 0.429,1.617 -0.231,2.376 -0.726,0.858 -1.551,0.627 -2.376,0.198 -0.693,-0.363 -1.452,-0.693 -2.112,-1.089 -0.825,-0.528 -2.541,-0.495 -1.914,-2.145 0.66,-1.65 1.914,-2.904 3.465,-3.729 z" /><path
       inkscape:connector-curvature="0"
       id="path37"
       d="m 36.642988,76.197 c -0.165,1.386 -0.33,2.574 -0.429,3.729 -0.066,0.957 -0.66,1.386 -1.485,1.584 -0.792,0.198 -1.386,-0.066 -1.78199,-0.792 -0.33,-0.627 -0.792,-1.188 -1.056,-1.848 -0.396,-1.056 -1.947,-2.013 -0.99,-3.135 1.089,-1.287 2.93699,-1.518 4.61999,-1.485 1.353,0 1.089,1.221 1.122,1.947 z" /><path
       inkscape:connector-curvature="0"
       id="path39"
       d="m 36.939988,79.2 c 0.099,-0.528 0.132,-1.254 0.33,-1.947 0.297,-0.957 -0.627,-2.508 1.056,-2.739 1.716,-0.198 3.828,0.33 4.455,1.716 1.056,2.31 -1.815,3.267 -2.739,4.95 -0.693,1.221 -1.848,0.495 -2.673,-0.066 -0.627,-0.363 -0.495,-1.089 -0.429,-1.914 z" /><path
       inkscape:connector-curvature="0"
       id="path41"
       d="m 35.751988,95.304 c -0.066,0.495 -0.198,1.188 -0.231,1.881 -0.132,2.31 -1.32,2.475 -3.20099,1.815 -3.333,-1.188 -3.498,-1.683 -1.287,-4.488 0.231,-0.297 0.495,-0.627 0.759,-0.924 0.693,-0.759 1.089,-1.947 2.60699,-1.452 1.617,0.561 1.287,1.782 1.353,3.168 z" /><path
       inkscape:connector-curvature="0"
       id="path43"
       d="m 32.121998,90.816 c 0.066,1.023 -3.432,5.049 -4.257,5.049 -0.792,0.033 -3.201,-2.97 -3.3,-4.158 -0.132,-1.617 1.32,-1.32 2.178,-1.617 1.056,-0.363 2.145,-0.594 3.234,-0.825 1.386,-0.33 1.716,0.759 2.145,1.551 z" /><path
       inkscape:connector-curvature="0"
       id="path45"
       d="m 44.760988,96.162 c -0.726,0.099 -1.023,-0.297 -1.32,-0.66 -0.825,-1.089 -1.584,-2.178 -2.409,-3.267 -0.561,-0.759 -0.495,-1.452 0.066,-2.178 0.495,-0.693 1.122,-0.858 1.881,-0.627 0.924,0.297 1.848,0.528 2.706,0.924 0.858,0.396 2.376,0.396 2.046,1.848 -0.396,1.749 -1.584,3.036 -2.97,3.96 z" /><path
       inkscape:connector-curvature="0"
       id="path47"
       d="m 49.116988,87.12 c 0,2.343 -0.66,2.838 -2.871,2.145 -1.056,-0.33 -2.112,-0.693 -3.168,-1.056 -0.825,-0.264 -0.99,-0.957 -0.99,-1.716 -0.033,-0.726 0.264,-1.221 0.957,-1.452 0.759,-0.264 1.485,-0.561 2.244,-0.759 3.135,-0.924 3.861,-0.363 3.828,2.838 z" /><path
       inkscape:connector-curvature="0"
       id="path49"
       d="m 47.697988,81.609 c 0.033,0.825 -0.561,1.056 -1.056,1.221 -1.353,0.462 -2.739,0.825 -4.059,1.32 -0.858,0.297 -1.32,-0.066 -1.782,-0.726 -0.462,-0.627 -0.66,-1.221 -0.066,-1.914 0.561,-0.66 0.957,-1.485 1.584,-2.046 0.792,-0.726 1.155,-2.541 2.64,-1.749 1.452,0.792 2.211,2.409 2.739,3.894 z" /><path
       inkscape:connector-curvature="0"
       id="path51"
       d="m 38.820988,99.231 c -1.98,0.33 -2.178,-0.792 -1.947,-1.848 0.396,-1.782 -1.452,-4.356 1.683,-5.181 0.825,-0.231 4.224,3.828 3.96,4.917 -0.495,2.013 -2.64,1.551 -3.696,2.112 z" /></g></svg>