<?xml version="1.0" encoding="UTF-8" standalone="no"?>
<!-- Generator: Adobe Illustrator 18.1.0, SVG Export Plug-In . SVG Version: 6.00 Build 0)  -->

<svg
   xmlns:dc="http://purl.org/dc/elements/1.1/"
   xmlns:cc="http://creativecommons.org/ns#"
   xmlns:rdf="http://www.w3.org/1999/02/22-rdf-syntax-ns#"
   xmlns:svg="http://www.w3.org/2000/svg"
   xmlns="http://www.w3.org/2000/svg"
   xmlns:sodipodi="http://sodipodi.sourceforge.net/DTD/sodipodi-0.dtd"
   xmlns:inkscape="http://www.inkscape.org/namespaces/inkscape"
   version="1.1"
   id="Ebene_1"
   x="0px"
   y="0px"
   viewBox="0 0 302.2902 123.82089"
   enable-background="new 0 0 996 505.5"
   xml:space="preserve"
   inkscape:version="0.48.5 r10040"
   width="100%"
   height="100%"
   sodipodi:docname="folienhaus_cars-05.svg"><metadata
     id="metadata35"><rdf:RDF><cc:Work
         rdf:about=""><dc:format>image/svg+xml</dc:format><dc:type
           rdf:resource="http://purl.org/dc/dcmitype/StillImage" /></cc:Work></rdf:RDF></metadata><defs
     id="defs33" /><sodipodi:namedview
     pagecolor="#ffffff"
     bordercolor="#666666"
     borderopacity="1"
     objecttolerance="10"
     gridtolerance="10"
     guidetolerance="10"
     inkscape:pageopacity="0"
     inkscape:pageshadow="2"
     inkscape:window-width="1375"
     inkscape:window-height="876"
     id="namedview31"
     showgrid="false"
     inkscape:zoom="0.32228916"
     inkscape:cx="395.85205"
     inkscape:cy="-53.3808"
     inkscape:window-x="65"
     inkscape:window-y="24"
     inkscape:window-maximized="1"
     inkscape:current-layer="g3"
     fit-margin-top="0"
     fit-margin-left="0"
     fit-margin-right="0"
     fit-margin-bottom="0" /><g
     id="g3"
     transform="translate(-326.93946,-195.70933)"><path
       d="m 352.65664,287.57725 c -0.561,-14.157 11.781,-26.73 26.763,-27.291 14.487,-0.528 27.687,11.616 28.281,25.839 0.66,15.972 -10.923,28.644 -26.367,29.37 -14.124,0.726 -28.875,-10.098 -28.677,-27.918 z m 45.672,0.297 c -0.132,-10.296 -8.283,-18.348 -18.447,-18.249 -9.9,0.099 -18.282,8.58 -18.15,18.447 0.099,10.329 8.448,18.348 19.041,18.216 9.636,-0.099 17.688,-8.547 17.556,-18.414 z"
       id="tires1"
       inkscape:connector-curvature="0" /><path
       d="m 581.41264,264.47725 c 13.86,-0.693 27.753,11.847 27.423,27.984 -0.297,14.685 -12.837,27.456 -28.512,27.06 -14.355,-0.396 -26.961,-12.969 -26.73,-27.654 0.297,-17.325 14.751,-28.149 27.819,-27.39 z m -0.264,45.639 c 10.164,0.066 18.249,-7.854 18.348,-18.051 0.066,-10.23 -8.085,-18.579 -18.15,-18.579 -10.065,0.033 -18.315,8.25 -18.48,18.414 -0.165,9.768 8.25,18.15 18.282,18.216 z"
       id="tires"
       inkscape:connector-curvature="0" /><path
       id="car"
       d="m 335.23264,267.87625 c -0.198,-1.188 -0.462,-2.343 -0.561,-3.531 -0.132,-1.287 0.429,-2.376 1.518,-3.069 0.858,-0.561 1.716,-0.264 2.409,0.396 1.023,0.957 1.023,2.244 0.462,3.3 -0.561,1.056 -0.825,2.046 -0.726,3.168 0.033,0.594 -0.363,1.419 0.462,1.65 0.66,0.165 1.155,-0.363 1.518,-0.957 1.254,-2.211 3.432,-2.97 5.676,-3.597 0.396,-0.099 0.792,-0.297 1.122,0 0.495,0.429 0.099,0.858 -0.165,1.254 -3.3,5.478 -6.072,11.22 -9.009,16.863 -0.561,1.056 -1.386,1.419 -2.508,1.452 -5.379,0.066 -9.075,-3.927 -8.415,-9.24 0.231,-2.046 0.66,-4.092 1.089,-6.105 0.231,-1.122 0.759,-2.079 2.211,-2.079 1.32,-0.033 1.782,0.825 2.178,1.815 0.33,0.858 -0.099,2.475 1.485,2.211 1.749,-0.264 1.452,-1.782 1.287,-3.069 -0.033,-0.165 -0.033,-0.33 -0.066,-0.462 -0.033,0 0,0 0.033,0 z m 227.535,-23.727 c 5.478,0.297 10.692,2.277 16.137,2.706 0.561,0.627 1.782,0.198 2.079,1.353 -0.231,0.099 -0.429,0.264 -0.594,0.264 -0.858,-0.033 -1.716,-0.165 -2.607,-0.198 -5.709,-0.165 -11.385,-0.231 -16.599,2.64 -9.405,3.762 -16.401,10.263 -21.45,18.942 -3.564,5.115 -5.148,11.055 -7.029,16.896 -0.132,0.363 -0.132,0.792 -0.297,1.155 -0.231,0.528 -0.231,1.452 -1.122,1.254 -0.825,-0.198 -0.594,-0.99 -0.561,-1.617 0.099,-4.62 0.231,-9.24 0.297,-13.86 0.132,-9.801 0.297,-19.602 0.297,-29.403 0,-2.046 0.561,-2.805 2.706,-2.772 8.217,0.132 16.335,1.155 24.453,2.145 1.452,0.165 2.871,0.297 4.29,0.495 z m -46.464,-28.248 c 3.465,4.092 6.171,8.646 8.613,13.398 1.452,2.904 2.937,5.808 4.389,8.745 1.122,2.277 0.792,2.838 -1.716,2.838 -5.016,0 -10.065,0.066 -15.081,-0.231 -6.93,-0.363 -13.86,-0.099 -20.823,-0.231 -12.606,-0.264 -25.179,-0.66 -37.785,-0.462 -1.683,0.033 -1.914,-0.396 -1.881,-2.211 0.099,-3.663 0.231,-7.326 0.396,-10.956 0.231,-6.6 0.594,-13.2 1.023,-19.8 0.198,-3.069 0.561,-3.333 3.663,-3.3 9.636,0.132 19.305,0.099 28.941,0.561 7.557,0.363 15.048,1.485 22.011,4.884 3.267,1.65 5.676,4.257 8.25,6.765 z m -12.078,18.084 c 4.455,0.099 7.854,0.165 11.286,-0.132 3.366,-0.297 4.521,-1.914 3.729,-5.148 -0.462,-1.881 -1.386,-3.564 -2.31,-5.247 -4.026,-7.557 -9.636,-12.771 -18.645,-13.959 -7.92,-1.056 -15.807,-1.848 -23.76,-2.079 -4.125,-0.132 -8.283,-0.363 -12.408,0.396 -3.102,0.561 -4.389,1.683 -4.554,4.851 -0.231,5.412 -0.726,10.824 -0.561,16.236 0.066,2.112 1.056,3.168 3.102,3.564 3.531,0.693 7.161,0.726 10.692,0.759 11.484,0.198 22.968,0.33 33.429,0.759 z m -134.145,11.121 c 0.198,-0.198 0.396,-0.396 0.594,-0.594 7.821,-7.821 15.642,-15.675 23.463,-23.496 3.267,-2.244 6.369,-4.752 9.966,-6.567 5.841,-2.508 11.649,-5.049 17.787,-6.864 9.405,-2.805 19.041,-3.465 28.776,-3.894 2.046,-0.099 2.706,0.759 2.541,2.706 -0.924,10.164 -1.551,20.328 -1.452,30.525 0.033,2.013 -0.759,3.168 -3.135,3.069 -10.131,-0.429 -20.229,0.132 -30.327,0.528 -11.814,0.495 -23.628,1.221 -35.145,4.752 -4.686,1.452 -9.768,1.716 -14.619,3.201 -0.132,-1.65 1.32,-2.178 1.551,-3.366 z m 51.381,-12.21 c 8.25,-0.033 15.675,0.198 23.067,-0.462 2.112,-0.198 3.465,-0.858 3.597,-3.234 0.099,-1.815 0.627,-3.63 0.66,-5.445 0.132,-4.455 1.089,-8.844 0.495,-13.332 -0.33,-2.508 -1.749,-3.432 -3.993,-3.531 -2.64,-0.132 -5.247,0.198 -7.854,0.396 -9.867,0.792 -19.305,3.267 -28.149,7.689 -4.521,2.277 -8.217,5.544 -9.867,10.527 -1.32,3.96 0.264,6.468 4.257,6.996 6.204,0.825 12.441,0.132 17.787,0.396 z m -6.798,32.142 c -2.31,-4.851 -6.336,-8.217 -10.263,-11.649 -2.607,-2.31 -5.511,-4.224 -8.844,-5.445 -2.772,-1.749 -6.039,-1.716 -9.603,-2.607 3.135,-1.617 6.171,-1.881 9.075,-2.343 11.121,-1.815 22.341,-2.013 33.561,-2.376 6.435,-0.198 12.903,0.033 19.371,-0.099 2.178,-0.033 3.036,0.627 2.805,2.871 -0.825,6.996 -0.462,13.992 -0.495,21.021 -0.033,7.491 0.165,14.982 0.924,22.44 0.165,1.683 -0.528,2.376 -2.145,2.277 -8.448,-0.528 -16.896,-0.264 -25.344,-0.33 -1.452,0 -1.848,-0.792 -2.046,-2.079 -1.089,-6.699 -2.937,-13.2 -5.742,-19.404 -0.33,-0.792 -0.792,-1.518 -1.254,-2.277 z m 101.64,-49.137 c -3.498,-5.742 -9.24,-8.118 -15.279,-9.834 -6.237,-1.782 -12.672,-2.376 -19.14,-2.442 -11.946,-0.132 -23.925,-0.132 -35.904,0 -14.157,0.132 -27.588,3.564 -40.26,9.867 -0.561,0.297 -1.089,0.66 -1.617,0.99 -3.564,1.815 -6.666,4.323 -9.966,6.567 -4.851,3.96 -9.009,8.679 -13.464,13.068 -3.432,3.399 -7.062,6.6 -10.032,10.428 -0.198,0.198 -0.396,0.396 -0.594,0.594 -3.399,5.346 -9.867,6.468 -14.091,10.659 -0.792,-0.759 -0.231,-1.221 0.033,-1.617 8.481,-13.101 17.655,-25.674 29.7,-35.706 9.042,-7.524 19.206,-13.497 30.426,-17.259 8.118,-2.706 16.599,-3.762 25.08,-4.653 14.421,-1.551 28.809,-0.726 43.197,0.396 7.656,0.594 15.18,1.65 22.374,4.521 3.333,1.32 5.973,3.564 8.019,6.567 4.092,6.006 7.722,12.276 11.418,18.513 1.023,1.716 2.211,2.475 4.158,2.574 9.471,0.429 18.909,1.287 28.248,2.904 14.157,2.475 27.687,6.864 39.534,15.345 2.211,1.584 4.29,3.333 6.039,5.412 0.495,0.594 1.32,1.419 -0.429,1.386 0,0 0.033,0.033 0.033,0.033 -2.904,-1.551 -6.006,-2.442 -9.174,-3.234 -0.759,-0.198 -1.914,-0.132 -2.013,-1.287 -0.264,-2.838 -2.079,-3.003 -4.389,-3.036 -3.135,-0.033 -6.204,1.617 -9.372,0.264 -5.445,-0.462 -10.659,-2.409 -16.137,-2.706 -5.313,-1.386 -10.791,-1.584 -16.203,-2.277 -4.356,-0.561 -8.712,-0.462 -13.068,-0.627 -1.617,-0.066 -2.541,-0.66 -3.3,-2.145 -1.65,-3.333 -3.036,-6.798 -5.313,-9.768 -2.376,-4.851 -5.082,-9.405 -8.514,-13.497 z m -101.64,49.137 c 3.036,7.062 5.412,14.289 6.633,21.879 0.231,1.452 0.231,1.452 -0.924,2.475 12.771,0.165 25.608,-0.297 38.445,0.396 5.478,0.297 11.022,0.033 16.5,0.231 17.787,0.627 35.574,-0.561 53.361,-0.165 4.158,0.099 7.194,3.795 6.402,7.953 -0.264,1.386 -1.32,1.485 -2.343,1.485 -3.036,0 -6.072,0 -9.108,-0.099 -13.464,-0.429 -26.928,-0.759 -40.392,-1.386 -13.431,-0.627 -26.895,-1.518 -40.326,-2.277 -6.534,-0.363 -13.035,-0.693 -19.569,-1.023 -2.772,-0.132 -5.544,-0.528 -8.349,-0.495 -3.201,0 -5.445,-3.168 -5.808,-7.062 -1.122,-12.309 -7.062,-21.384 -18.315,-26.862 -11.187,-5.445 -25.113,-0.858 -32.274,8.613 -2.673,3.531 -4.587,7.458 -6.831,11.22 -2.376,3.993 -5.775,6.105 -10.428,5.907 -3.3,-0.165 -3.696,-1.056 -2.244,-3.894 2.937,-5.676 6.105,-11.187 9.108,-16.83 4.686,-8.844 12.672,-13.101 21.351,-16.335 8.481,-3.168 17.226,-3.663 26.004,-0.858 3.3,1.221 6.204,3.135 8.844,5.445 3.927,3.465 7.953,6.831 10.263,11.682 z m 83.82,24.288 c -14.586,0.825 -29.172,-0.099 -43.758,-0.033 -2.31,0 -3.168,-1.089 -3.267,-3.135 -0.528,-12.738 -1.683,-25.443 -0.561,-38.214 0.165,-1.749 0.132,-3.498 0.264,-5.247 0.099,-1.683 1.023,-2.211 2.673,-2.178 9.735,0.066 19.47,-0.033 29.205,0.066 12.771,0.132 25.509,0.396 38.28,0.594 1.419,0.033 2.871,0.33 4.29,0.264 2.31,-0.132 4.026,0.165 3.465,3.102 3.498,4.653 1.254,9.966 1.617,14.982 0.396,5.148 0.066,10.362 0.066,15.543 0,1.353 0.066,2.706 -0.033,4.059 -0.066,1.023 -0.033,2.112 -0.891,2.871 -1.716,1.485 -1.287,3.333 -0.528,4.983 0.99,2.079 1.023,2.244 -1.386,2.277 -4.554,0.066 -9.108,0.066 -13.629,0.066 -5.28,0.033 -10.527,0 -15.807,0 z m 130.746,-4.059 c -0.792,1.551 -1.419,3.234 -2.409,4.653 -2.211,3.234 -5.775,3.465 -8.415,0.627 -0.099,-0.132 -0.165,-0.297 -0.297,-0.363 -6.864,-2.871 -9.24,-9.504 -12.705,-15.213 -4.125,-6.732 -9.801,-11.319 -17.787,-12.441 -17.259,-2.442 -31.317,6.534 -36.201,24.123 -0.627,2.211 -1.254,4.422 -1.584,6.732 -0.528,3.498 -2.046,4.917 -5.61,5.478 -1.188,0.198 -2.376,0.363 -3.564,0.396 -4.191,0.099 -4.191,0.066 -5.181,-3.96 -0.264,-0.99 -0.495,-2.145 -1.122,-2.871 -1.98,-2.277 -1.452,-4.587 -0.792,-7.161 1.452,-5.412 3.993,-10.395 6.171,-15.51 5.082,-8.679 12.078,-15.147 21.45,-18.942 6.105,-2.277 12.441,-2.64 18.81,-2.046 8.151,0.759 16.137,2.541 23.892,5.313 l -0.033,-0.033 c 2.442,0.693 4.422,2.112 6.105,3.993 0.396,0.462 0.99,0.858 1.584,0.99 5.94,1.386 9.57,7.854 6.963,14.619 -0.264,0.693 -1.155,1.551 -0.396,2.178 1.089,0.891 2.409,1.65 3.828,1.815 0.99,0.099 0.759,-1.023 1.023,-1.617 0.429,-1.056 0.429,-2.541 2.112,-2.442 1.551,0.066 2.442,1.023 2.871,2.475 0.429,1.452 0.825,2.904 1.254,4.356 0.033,1.65 0.033,3.267 0.033,4.851 z"
       inkscape:connector-curvature="0" /><path
       d="m 380.11264,276.48925 c 6.501,0 11.715,5.115 11.649,11.385 -0.099,6.732 -5.346,11.781 -12.21,11.715 -5.544,-0.066 -10.989,-5.61 -10.989,-11.22 0,-6.996 4.785,-11.913 11.55,-11.88 z m 3.3,11.517 c 0.066,-1.782 -1.452,-3.399 -3.234,-3.465 -1.65,-0.066 -3.564,1.815 -3.564,3.498 0,1.683 1.65,3.267 3.432,3.3 1.815,0.033 3.3,-1.452 3.366,-3.333 z"
       id="path27"
       inkscape:connector-curvature="0" /><path
       d="m 581.24764,280.31725 c 6.336,0 11.616,5.181 11.715,11.484 0.099,6.204 -5.412,11.781 -11.682,11.847 -6.336,0.066 -11.583,-5.28 -11.583,-11.781 0,-6.435 5.148,-11.583 11.55,-11.55 z m 0.132,8.349 c -1.914,-0.033 -3.432,1.32 -3.498,3.102 -0.066,1.782 1.419,3.366 3.234,3.432 1.881,0.066 3.333,-1.287 3.399,-3.168 0.066,-1.98 -1.155,-3.333 -3.135,-3.366 z"
       id="path29"
       inkscape:connector-curvature="0" /></g></svg>