<?xml version="1.0" encoding="UTF-8" standalone="no"?>
<!-- Generator: Adobe Illustrator 18.1.0, SVG Export Plug-In . SVG Version: 6.00 Build 0)  -->

<svg
   xmlns:dc="http://purl.org/dc/elements/1.1/"
   xmlns:cc="http://creativecommons.org/ns#"
   xmlns:rdf="http://www.w3.org/1999/02/22-rdf-syntax-ns#"
   xmlns:svg="http://www.w3.org/2000/svg"
   xmlns="http://www.w3.org/2000/svg"
   xmlns:sodipodi="http://sodipodi.sourceforge.net/DTD/sodipodi-0.dtd"
   xmlns:inkscape="http://www.inkscape.org/namespaces/inkscape"
   version="1.1"
   id="Ebene_1"
   x="0px"
   y="0px"
   viewBox="0 0 655.6 344"
   enable-background="new 0 0 655.6 344"
   xml:space="preserve"
   inkscape:version="0.48.5 r10040"
   width="100%"
   height="100%"
   sodipodi:docname="folienhaus_logo.svg"><metadata
     id="metadata9"><rdf:RDF><cc:Work
         rdf:about=""><dc:format>image/svg+xml</dc:format><dc:type
           rdf:resource="http://purl.org/dc/dcmitype/StillImage" /></cc:Work></rdf:RDF></metadata><defs
     id="defs7" /><sodipodi:namedview
     pagecolor="#ffffff"
     bordercolor="#666666"
     borderopacity="1"
     objecttolerance="10"
     gridtolerance="10"
     guidetolerance="10"
     inkscape:pageopacity="0"
     inkscape:pageshadow="2"
     inkscape:window-width="1375"
     inkscape:window-height="876"
     id="namedview5"
     showgrid="false"
     inkscape:zoom="0.48962782"
     inkscape:cx="327.8"
     inkscape:cy="172"
     inkscape:window-x="65"
     inkscape:window-y="24"
     inkscape:window-maximized="1"
     inkscape:current-layer="Ebene_1" /><path
     d="M126.6,269.1c-1.9-2.2-4-3.9-6.5-5.1s-5.1-1.8-8-1.8c-2.8,0-5.4,0.6-7.9,1.8c-2.5,1.2-4.6,2.8-6.4,5  c-1.8,2.2-3.3,4.8-4.4,7.9c-1.1,3.1-1.6,6.7-1.6,10.6c0,3.8,0.5,7.3,1.5,10.4c1,3.1,2.5,5.8,4.3,8.1c1.8,2.2,4,4,6.5,5.2  c2.5,1.2,5.2,1.9,8.1,1.9c2.9,0,5.6-0.6,8.1-1.8c2.5-1.2,4.6-2.9,6.5-5.1c1.8-2.2,3.2-4.9,4.2-8c1-3.1,1.5-6.6,1.5-10.4  c0-3.9-0.5-7.5-1.6-10.6C130,274,128.5,271.3,126.6,269.1z M466.4,300h19.2l-9.6-23.2L466.4,300z M655.6,231.7  C568.7,170.4,349.9,16,327.3,0h-1C305.4,15,88,169.4,0.1,231.7C0.1,269.1,0,344,0,344h655.6C655.6,344,655.6,269.1,655.6,231.7z   M66.1,263h-26v18h25v11h-25v31h-11v-71h37V263z M142.7,302.4c-1.6,4.5-3.9,8.3-6.9,11.5c-2.9,3.2-6.4,5.7-10.4,7.5  s-8.4,2.6-13.1,2.6c-4.8,0-9.2-0.9-13.2-2.6c-4-1.7-7.5-4.2-10.4-7.4s-5.2-7-6.8-11.5c-1.6-4.5-2.4-9.5-2.4-15  c0-5.3,0.8-10.2,2.4-14.7c1.6-4.5,3.9-8.3,6.8-11.5s6.4-5.7,10.4-7.5c4-1.8,8.5-2.7,13.2-2.7c4.7,0,9.1,0.9,13.1,2.7  s7.5,4.3,10.4,7.5c2.9,3.2,5.2,7,6.9,11.5c1.6,4.5,2.4,9.4,2.4,14.7C145.1,293,144.3,297.9,142.7,302.4z M198.1,323h-36v-71h12v60  h24V323z M213.1,211h12v29h-12V211z M225.1,323h-12v-71h12V323z M284.1,263h-28v18h26v11h-26v20h28v11h-39v-71h39V263z M357.1,324  h-2.2l-41.8-44.7V323h-11v-71h1.1l41.9,44.9V252h12V324z M432.1,323h-11v-31h-33v31h-12v-71h12v29h33v-29h11V323z M495.2,323  l-5.5-13h-27.4l-5.4,13h-12.2l30.7-71h1.3l30.7,71H495.2z M573.1,292.8c0,10.3-2.4,18-7.2,23.3c-2.3,2.5-5.2,4.5-8.5,5.9  c-3.3,1.4-7.5,2.1-12.4,2.1c-4.9,0-8.9-0.7-12.2-2c-3.3-1.3-6-3.2-8.1-5.5c-2.9-2.9-5-6.2-6-10s-1.7-8.4-1.7-13.8V252h12v36.7  c0,4,0.3,7.7,0.8,11.1c0.5,3.4,1.8,6.2,3.7,8.4c1.2,1.4,2.8,2.5,4.9,3.4c2,0.9,4.3,1.4,6.9,1.4c2.7,0,5.1-0.5,7.1-1.4  c2-0.9,3.6-2.2,4.9-3.7c1.7-2.1,2.6-4.6,3.1-7.6c0.5-3,0.6-6.4,0.6-10V252h12V292.8z M630.6,311.3c-0.9,2.3-2.3,4.5-4.1,6.3  c-1.8,1.9-4.2,3.5-7,4.7c-2.9,1.2-6.3,1.8-10.2,1.8c-2.6,0-5-0.2-7.2-0.8c-2.2-0.5-4.1-1.1-5.8-1.8c-1.7-0.7-3.3-1.5-4.4-2.2  c-1.1-0.8-1.8-1.5-2.8-2V305h1.3c1,1,2.1,2,3.3,2.9c1.2,0.9,2.6,1.8,4,2.5c1.5,0.7,3,1.4,4.7,1.8c1.7,0.5,3.5,0.7,5.4,0.7  c3.9,0,6.8-0.8,8.8-2.5c2-1.7,3-3.7,3-6c0-1.2-0.2-2.3-0.5-3.2c-0.3-1-0.9-1.9-1.6-2.8c-0.7-0.9-1.7-1.8-2.8-2.7  c-1.2-0.9-2.6-1.9-4.2-2.9l-5.7-3.5c-1.6-1-3.2-2.1-4.9-3.3c-1.7-1.2-3.2-2.6-4.5-4.1c-1.4-1.6-2.5-3.4-3.3-5.4  c-0.9-2-1.3-4.4-1.3-7c0-2.3,0.4-4.5,1.3-6.7c0.9-2.2,2.2-4.1,4-5.8s4-3.1,6.7-4.1c2.6-1.1,5.7-1.6,9.1-1.6c3.8,0,7.3,0.8,10.6,2.2  c3.3,1.5,6,3.7,8.1,6.5l-6.4,8.5c-1.4-1.5-3.1-2.9-5.1-4.2c-2-1.3-4.4-1.9-7.2-1.9c-2.6,0-4.7,0.6-6.4,1.9c-1.7,1.3-2.5,3-2.5,5.1  c0,1,0.1,1.9,0.5,2.7c0.3,0.8,0.8,1.6,1.4,2.4c0.7,0.8,1.5,1.5,2.6,2.3c1,0.8,2.2,1.6,3.6,2.5l7.5,4.8c2.7,1.7,4.9,3.4,6.6,5.1  c1.7,1.7,3.1,3.3,4.1,5s1.7,3.4,2.1,5.2c0.4,1.7,0.6,3.5,0.6,5.3C631.9,306.7,631.5,309,630.6,311.3z"
     id="house" /></svg>