<?xml version="1.0" encoding="UTF-8" standalone="no"?>
<!-- Generator: Adobe Illustrator 18.1.0, SVG Export Plug-In . SVG Version: 6.00 Build 0)  -->

<svg
   xmlns:dc="http://purl.org/dc/elements/1.1/"
   xmlns:cc="http://creativecommons.org/ns#"
   xmlns:rdf="http://www.w3.org/1999/02/22-rdf-syntax-ns#"
   xmlns:svg="http://www.w3.org/2000/svg"
   xmlns="http://www.w3.org/2000/svg"
   xmlns:sodipodi="http://sodipodi.sourceforge.net/DTD/sodipodi-0.dtd"
   xmlns:inkscape="http://www.inkscape.org/namespaces/inkscape"
   version="1.1"
   id="Ebene_1"
   x="0px"
   y="0px"
   viewBox="0 0 294.35127 97.442557"
   enable-background="new 0 0 1032 419.8"
   xml:space="preserve"
   inkscape:version="0.48.5 r10040"
   width="100%"
   height="100%"
   sodipodi:docname="folienhaus_cars-02.svg"><metadata
     id="metadata33"><rdf:RDF><cc:Work
         rdf:about=""><dc:format>image/svg+xml</dc:format><dc:type
           rdf:resource="http://purl.org/dc/dcmitype/StillImage" /></cc:Work></rdf:RDF></metadata><defs
     id="defs31" /><sodipodi:namedview
     pagecolor="#ffffff"
     bordercolor="#666666"
     borderopacity="1"
     objecttolerance="10"
     gridtolerance="10"
     guidetolerance="10"
     inkscape:pageopacity="0"
     inkscape:pageshadow="2"
     inkscape:window-width="1375"
     inkscape:window-height="876"
     id="namedview29"
     showgrid="false"
     fit-margin-top="0"
     fit-margin-left="0"
     fit-margin-right="0"
     fit-margin-bottom="0"
     inkscape:zoom="2.4883722"
     inkscape:cx="109.13646"
     inkscape:cy="51.847898"
     inkscape:window-x="65"
     inkscape:window-y="24"
     inkscape:window-maximized="1"
     inkscape:current-layer="car" /><g
     id="car"><g
       id="g2997"
       inkscape:label="#car"><path
         d="m 0,52.647264 c 2.805,-1.617 3.927,-4.554 3.795,-7.755 -0.198,-5.247 0.198,-10.527 1.881,-15.57599 0.297,-0.858 0.627,-1.617 0.627,-2.64 0,-1.419 1.188,-2.376 2.541,-2.871 2.178,-0.792 4.455,-1.353 6.765,-1.452 16.071,-0.693 32.109,-2.574 48.246,-1.98 3.498,0.132 7.029,0.231 10.527,0.495 2.079,0.165 3.267,-0.396 3.663,-2.64 0.462,-2.739 1.221,-5.445 1.815,-8.151 0.693,-3.1349996 2.541,-4.1579996 5.478,-2.9369996 0.198,0.099 0.528,0.264 0.627,0.198 2.112,-1.452 3.564,0.099 5.412,0.891 3.432,1.518 4.422,2.5409996 4.62,6.2039996 0.099,1.881 -0.231,3.63 -0.858,5.379 -0.198,0.528 -0.561,1.518 0.429,1.485 3.102,-0.099 5.313,2.409 8.349,2.607 6.369,0.429 12.672,1.221 19.041,1.683 7.227,0.528 14.487,0.825 21.714,1.386 2.442,0.198 4.323,-0.033 5.379,-2.673 0.693,-1.749 1.617,-3.564 2.904,-4.917 1.419,-1.485 0.594,-1.914 -0.528,-2.673 -6.039,-3.993 -11.748,-8.5799996 -19.305,-9.5369996 -1.221,-0.165 -1.221,-1.32 -1.485,-2.211 -0.33,-1.056 0.231,-1.683 1.023,-2.178 4.422,-2.70600401 9.141,-3.43200401 14.19,-2.21100401 3.003,0.72600401 5.379,2.70600401 8.052,4.05900401 10.362,5.313 20.625,10.8239996 30.657,16.7309996 0.528,0.33 1.155,0.759 1.716,0.759 6.435,0.066 12.276,3.3 18.843,3.234 6.336,-0.066 12.705,0.99 19.008,1.683 11.814,1.287 23.496,3.102 34.98,6.26999 5.907,1.617 11.913,2.937 17.754,4.719 3.597,1.089 6.105,3.201 7.821,6.765 1.815,3.762 4.587,7.062 6.831,10.626 2.739,4.389 2.409,7.986 -0.924,12.012 -1.221,1.485 -1.65,5.445 -0.627,6.963 0.825,1.188 0.066,1.914 -0.594,2.706 -3.135,3.861 -7.557,4.884 -12.144,5.247 -2.607,0.198 -5.247,0.198 -7.887,0.132 -2.145,-0.033 -2.607,-0.891 -2.343,-2.739 0.594,-3.795 0.726,-7.623 0.066,-11.418 -1.914,-10.659 -11.715,-19.866 -22.473,-21.384 -12.111,-1.683 -21.846,2.145 -28.842,12.276 -2.607,3.795 -4.059,8.118 -3.96,12.837 0.066,3.663 0.066,7.326 0.231,10.989 0.033,1.155 -0.429,1.419 -1.353,1.419 -12.936,-0.132 -25.839,-0.297 -38.775,-0.429 -7.194,-0.066 -14.355,-0.165 -21.549,-0.165 -15.411,-0.033 -30.822,-0.033 -46.2,0 -6.138,0.033 -12.276,0.264 -18.414,0.363 -3.729,0.066 -3.795,-0.099 -3.894,-3.927 -0.132,-4.356 0.561,-8.712 -0.462,-13.101 -2.541,-10.791 -11.814,-19.074 -22.77,-20.79 -13.464,-2.112 -27.357,6.072 -31.02,19.635 -0.858,3.168 -1.254,6.369 -0.693,9.669 0.462,2.772 -0.033,3.135 -2.739,2.706 -3.696,-0.594 -7.392,-1.221 -10.89,-2.607 -3.135,-1.221 -5.676,-3.102 -7.26,-6.204 -2.211,-4.323 -5.709,-7.92 -6.963,-12.738 C 0,55.518264 0,54.099264 0,52.647264 z m 9.471,-13.662 c -1.122,0 -2.244,0 -3.333,0 -0.627,0 -1.089,0.33 -1.089,0.99 0,0.693 0.462,0.99 1.089,1.023 2.706,0.198 5.379,0.66 8.085,0.462 0.462,-0.033 1.023,0.066 1.122,-0.594 0.066,-0.528 -0.33,-0.858 -0.759,-1.122 -1.584,-0.99 -3.366,-0.792 -5.115,-0.759 z"
         id="cover"
         inkscape:connector-curvature="0" /><g
         id="wheel1"><path
           inkscape:connector-curvature="0"
           id="tires1"
           d="m 55.506,46.740264 c 13.596,0.198 24.486,10.857 24.915,24.09 0.528,15.312 -11.055,26.103 -24.849,26.268 -14.256,0.165 -25.806,-11.319 -25.509,-25.212 0.33,-15.378 12.441,-25.113 25.443,-25.146 z m 18.084,25.146 c 0,-10.197 -7.986,-18.216 -18.15,-18.216 -10.362,0 -18.546,8.019 -18.513,18.183 0.033,10.494 8.118,18.381 18.744,18.513 9.438,0.099 18.48,-8.646 17.919,-18.48 z" /><path
           inkscape:connector-curvature="0"
           id="path9"
           d="m 55.011,55.518264 c 1.65,0.396 3.927,-0.33 4.059,2.574 0.132,2.871 -1.947,5.676 -4.719,5.973 -1.914,0.198 -3.63,-0.396 -4.851,-1.98 -2.31,-2.937 -1.584,-5.148 2.013,-5.973 1.155,-0.264 2.343,-0.396 3.498,-0.594 z" /><path
           inkscape:connector-curvature="0"
           id="path11"
           d="m 53.79,83.469264 c -0.066,3.729 -2.046,4.95 -5.379,3.333 -1.419,-0.693 -2.739,-1.584 -3.993,-2.574 -1.782,-1.419 -1.485,-2.739 -0.198,-4.191 1.518,-1.749 4.125,-2.409 6.303,-1.584 2.013,0.726 3.3,2.706 3.267,5.016 z" /><path
           inkscape:connector-curvature="0"
           id="path13"
           d="m 39.072,71.259264 c -0.132,-1.98 0.495,-3.762 1.089,-5.61 0.561,-1.749 1.749,-2.079 3.366,-1.584 2.904,0.891 4.686,3.96 3.927,6.765 -0.759,2.706 -3.795,4.257 -6.633,3.663 -2.079,-0.429 -1.914,-1.782 -1.749,-3.234 z" /><path
           inkscape:connector-curvature="0"
           id="path15"
           d="m 67.419,71.457264 c -2.343,0.033 -4.785,-1.815 -5.313,-3.993 -0.594,-2.574 0.462,-4.983 2.739,-6.27 1.32,-0.726 2.376,-0.627 3.3,0.627 1.122,1.551 2.112,3.135 2.706,4.983 0.957,3.003 -0.198,4.62 -3.432,4.653 z" /><path
           inkscape:connector-curvature="0"
           id="path17"
           d="m 64.812,75.912264 c 1.98,0.198 3.597,0.792 4.488,2.475 0.825,1.518 -0.429,2.475 -1.155,3.597 -0.891,1.353 -2.178,2.277 -3.366,3.333 -1.65,1.452 -3.003,1.056 -4.158,-0.627 -1.32,-1.947 -1.32,-4.026 -0.363,-6.105 0.891,-2.013 2.739,-2.442 4.554,-2.673 z" /></g><g
         id="wheel2"><path
           inkscape:connector-curvature="0"
           id="tires2"
           d="m 265.485,72.381264 c 0.462,13.101 -11.121,25.542 -25.971,25.047 -12.309,-0.396 -24.651,-10.956 -24.189,-25.971 0.429,-13.893 12.111,-24.552 25.575,-24.321 13.464,0.231 25.08,11.748 24.585,25.245 z m -6.6,-0.231 c 0,-9.933 -8.514,-18.381 -18.546,-18.381 -9.801,0 -18.381,8.481 -18.447,18.249 -0.066,10.263 8.448,18.777 18.678,18.744 9.933,-0.033 18.315,-8.58 18.315,-18.612 z" /><path
           inkscape:connector-curvature="0"
           id="path19"
           d="m 247.005,66.177264 c -2.046,-0.33 -3.828,-1.089 -4.785,-3.069 -1.023,-2.079 -0.594,-3.993 0.627,-5.841 0.561,-0.858 1.32,-0.957 2.277,-0.66 2.079,0.66 3.927,1.683 5.643,3.036 2.079,1.683 2.145,2.739 0.264,4.686 -1.089,1.122 -2.508,1.584 -4.026,1.848 z" /><path
           inkscape:connector-curvature="0"
           id="path21"
           d="m 240.9,88.650264 c -3.597,0.033 -4.554,-1.287 -3.663,-4.389 0.693,-2.442 2.409,-3.96 4.653,-4.125 2.508,-0.165 4.587,1.122 5.478,3.366 0.957,2.343 0.396,3.597 -2.013,4.323 -0.99,0.297 -2.013,0.462 -3.036,0.66 -0.594,0.132 -1.221,0.165 -1.419,0.165 z" /><path
           inkscape:connector-curvature="0"
           id="path23"
           d="m 227.964,72.051264 c 2.97,0 5.049,1.683 5.379,4.29 0.33,2.673 -1.353,5.28 -3.96,6.039 -1.023,0.297 -1.815,0.198 -2.442,-0.792 -1.056,-1.617 -1.848,-3.333 -2.343,-5.181 -0.891,-3.267 -0.066,-4.356 3.366,-4.356 z" /><path
           inkscape:connector-curvature="0"
           id="path25"
           d="m 236.907,61.920264 c -0.033,2.904 -1.287,4.653 -3.729,5.445 -2.046,0.66 -4.521,-0.198 -5.94,-1.947 -0.792,-0.957 -0.825,-1.815 -0.033,-2.772 1.32,-1.584 2.673,-3.135 4.488,-4.191 2.673,-1.551 3.927,-1.089 4.917,1.848 0.165,0.594 0.231,1.254 0.297,1.617 z" /><path
           inkscape:connector-curvature="0"
           id="path27"
           d="m 256.938,72.018264 c -0.231,2.772 -0.66,4.686 -1.419,6.567 -0.462,1.089 -1.155,1.617 -2.376,1.551 -2.97,-0.165 -5.247,-3.069 -4.851,-6.204 0.363,-2.871 3.465,-5.115 6.237,-4.554 1.98,0.363 2.574,1.551 2.409,2.64 z" /></g></g></g></svg>