<?xml version="1.0" encoding="UTF-8" standalone="no"?>
<!-- Generator: Adobe Illustrator 18.1.0, SVG Export Plug-In . SVG Version: 6.00 Build 0)  -->

<svg
   xmlns:dc="http://purl.org/dc/elements/1.1/"
   xmlns:cc="http://creativecommons.org/ns#"
   xmlns:rdf="http://www.w3.org/1999/02/22-rdf-syntax-ns#"
   xmlns:svg="http://www.w3.org/2000/svg"
   xmlns="http://www.w3.org/2000/svg"
   xmlns:sodipodi="http://sodipodi.sourceforge.net/DTD/sodipodi-0.dtd"
   xmlns:inkscape="http://www.inkscape.org/namespaces/inkscape"
   version="1.1"
   id="Ebene_1"
   x="0px"
   y="0px"
   viewBox="0 0 292.00338 101.08587"
   enable-background="new 0 0 1032 592.6"
   xml:space="preserve"
   inkscape:version="0.48.5 r10040"
   width="100%"
   height="100%"
   sodipodi:docname="folienhaus_cars-04.svg"><metadata
     id="metadata33"><rdf:RDF><cc:Work
         rdf:about=""><dc:format>image/svg+xml</dc:format><dc:type
           rdf:resource="http://purl.org/dc/dcmitype/StillImage" /></cc:Work></rdf:RDF></metadata><defs
     id="defs31" /><sodipodi:namedview
     pagecolor="#ffffff"
     bordercolor="#666666"
     borderopacity="1"
     objecttolerance="10"
     gridtolerance="10"
     guidetolerance="10"
     inkscape:pageopacity="0"
     inkscape:pageshadow="2"
     inkscape:window-width="1375"
     inkscape:window-height="876"
     id="namedview29"
     showgrid="false"
     fit-margin-top="0"
     fit-margin-left="0"
     fit-margin-right="0"
     fit-margin-bottom="0"
     inkscape:zoom="1.244186"
     inkscape:cx="174.21329"
     inkscape:cy="-32.342094"
     inkscape:window-x="65"
     inkscape:window-y="24"
     inkscape:window-maximized="1"
     inkscape:current-layer="g3010" /><g
     id="g3010"
     inkscape:label="#car"><g
       id="car"><path
         d="m 208.56724,78.611595 c -0.33,2.607 0.363,5.346 0.495,8.118 0.033,0.825 0.627,1.881 -0.528,2.277 -1.056,0.363 -2.211,0.429 -3.135,-0.462 -0.396,-0.396 -0.825,-0.792 -1.023,-1.287 -1.221,-2.97 -3.696,-3.333 -6.468,-3.333 -18.414,-0.033 -36.861,0.066 -55.275,-0.231 -13.464,-0.198 -26.961,-0.33 -40.425,-0.231 -5.675998,0.033 -11.186998,1.386 -16.796998,2.145 -4.125,0.561 -8.25,0.429 -12.342,-0.429 -1.056,-0.231 -1.617,-0.561 -1.122,-1.749 0.528,-1.32 0.231,-2.64 0,-3.993 -0.627,-3.795 -1.716,-7.458 -2.805,-11.121 -2.079,-7.062 -7.326,-10.725 -13.926,-12.936 -5.874,-1.947 -11.781,-1.683 -17.622,-0.033 -7.557,2.145 -14.685,10.923 -15.708,19.173 -0.363,3.003 -0.594,6.039 -0.363,9.075 0.033,0.462 0.231,1.056 -0.396,1.188 -0.264,0.066 -0.726,-0.264 -0.957,-0.528 -2.838,-3.432 -6.303,-6.039 -10.3620003,-7.92 -1.32,-0.627 -2.442,-1.782 -2.706,-3.201 -0.363,-2.112 -1.683,-3.498 -2.871,-5.082 -3.432,-4.554 -4.323,-9.834 -4.224,-15.378 0,-0.759 0.297,-1.386 0.792,-1.947 2.013,-2.211 2.574,-4.62 1.881,-7.689 -0.693,-2.937 -0.693,-6.039 0.957,-8.844 0.396,-0.66 0.264,-1.155 -0.033,-1.749 -0.396,-0.825 -0.462,-1.815 -0.033,-2.541 0.924,-1.617 0.693,-2.64 -0.693,-3.993 -1.452,-1.419 -0.462,-3.663 1.881,-4.686 3.729,-1.617 7.6230003,-2.31 11.6820003,-2.046 4.356,0.297 8.745,0.33 13.068,1.122 0.891,0.165 1.749,-0.066 2.574,-0.429 6.699,-2.97 13.398,-5.94 20.097,-8.91 0.429,-0.198 1.056,-0.396 1.188,-0.726 0.957,-2.8379997 3.564,-3.1679997 5.841,-3.9929997 9.636,-3.498 19.635,-4.488 29.799,-5.115 10.824,-0.69299999 21.647998,-1.28699999 32.504998,-1.08899999 10.164,0.198 20.394,-0.066 30.492,2.04599999 8.613,1.815 16.368,5.775 24.42,8.9429997 11.715,4.62 22.902,10.494 34.551,15.246 3.366,1.353 7.029,1.155 10.527,1.716 14.322,2.211 28.644,4.389 42.405,9.141 8.151,2.805 15.675,6.699 22.275,12.276 1.485,1.254 3.432,1.683 4.488,3.696 2.145,4.092 1.452,8.118 -0.33,11.748 -2.013,4.158 -1.452,8.184 -1.023,12.342 0.132,1.353 0.264,2.673 -0.165,4.026 -0.528,1.782 -1.65,2.805 -3.465,3.201 -6.798,1.386 -13.728,1.782 -20.592,2.805 -2.97,0.429 -4.158,-1.155 -3.531,-4.587 0.726,-3.993 0.198,-7.953 -0.33,-11.88 -0.693,-5.346 -4.224,-8.91 -7.722,-12.573 -9.009,-9.471 -29.238,-9.108 -38.676,1.056 -5.148,5.412 -6.534,12.012 -6.27,19.371 z m -32.505,-52.767 c -0.297,-0.264 -0.396,-0.396 -0.528,-0.495 -1.122,-0.726 -2.31,-1.419 -3.432,-2.211 -14.652,-10.395 -31.317,-13.1669997 -48.774,-13.035 -1.452,0 -2.079,0.528 -1.947,1.98 0.165,2.046 0.297,4.125 0.495,6.171 0.396,4.521 0.759,9.042 1.518,13.497 0.264,1.551 1.056,2.376 2.706,2.442 2.079,0.066 4.125,0.33 6.204,0.429 13.134,0.594 26.268,1.254 39.435,1.056 1.914,-0.033 2.277,-0.396 1.683,-2.277 -1.419,-4.389 -0.858,-5.742 2.64,-7.557 z m -59.73,-15.576 c -1.914,0.099 -3.828,0.297 -5.742,0.297 -11.021998,-0.066 -21.911998,1.287 -32.702998,3.366 -0.924,0.198 -1.584,0.495 -2.145,1.254 -3.366,4.554 -5.973,9.603 -9.042,14.355 -0.759,1.188 -0.165,1.287 0.858,1.353 7.161,0.462 14.289,0.957 21.45,1.419 9.999,0.627 20.030998,1.188 30.029998,1.848 1.65,0.099 2.211,-0.396 2.013,-1.98 -0.792,-6.699 -1.617,-13.431 -2.31,-20.163 -0.198,-1.683 -1.056,-1.947 -2.409,-1.749 z m -43.757998,5.544 c -1.056,-0.66 -1.749,-0.099 -2.475,0.132 -2.343,0.759 -4.686,1.584 -6.996,2.409 -6.237,2.211 -12.276,4.917 -17.985,8.25 -0.66,0.396 -1.551,0.792 -1.485,1.683 0.066,0.858 0.924,1.122 1.617,1.122 5.346,0.033 10.593,1.386 15.939,1.056 1.023,-0.066 1.881,-0.33 2.541,-1.122 3.399,-4.224 5.841,-9.042 8.844,-13.53 z m -1.089,29.898 c 0,0 0,0 0,0 1.254,0 2.541,0.066 3.795,0 0.957,-0.033 2.079,-0.165 2.409,-1.188 0.363,-1.155 -0.594,-1.881 -1.419,-2.508 -0.495,-0.363 -1.122,-0.561 -1.716,-0.726 -2.409,-0.693 -4.851,-0.627 -7.326,-0.627 -1.452,0 -2.739,0.297 -2.805,2.145 -0.033,1.881 1.023,2.772 2.772,2.904 1.419,0.066 2.838,0 4.29,0 z m 64.679998,1.452 c 1.518,0 3.036,0.033 4.521,0 0.891,-0.033 1.848,-0.231 2.145,-1.188 0.264,-0.957 -0.462,-1.617 -1.188,-2.178 -0.693,-0.528 -1.452,-0.924 -2.343,-1.089 -2.376,-0.396 -4.752,-0.495 -7.128,-0.462 -1.485,0 -2.574,0.462 -2.574,2.112 0,1.617 0.693,2.805 2.508,2.805 1.353,0.033 2.706,0 4.059,0 z m 147.543,10.032 c 1.089,-0.264 2.607,-0.693 2.376,-2.211 -0.231,-1.518 -0.264,-3.795 -2.376,-3.927 -1.419,-0.099 -3.267,0.396 -4.026,2.013 -0.429,0.924 2.673,4.092 4.026,4.125 z"
         id="cover"
         inkscape:connector-curvature="0" /><g
         id="wheel1"><path
           inkscape:connector-curvature="0"
           id="tires1"
           d="m 24.328242,78.743595 c 0.033,-12.045 10.065,-22.011 22.242,-21.912 12.045,0.099 22.143,9.438 22.011,22.341 -0.132,12.54 -9.867,21.846005 -22.209,21.912005 -12.177,0.132 -22.077,-10.032005 -22.044,-22.341005 z m 7.029,0.198 c 0,8.217 6.831,15.114 15.015,15.18 7.887,0.033 15.279,-6.963 15.147,-14.619 -0.132,-9.57 -6.93,-15.411 -15.114,-15.609 -8.184,-0.231 -15.015,6.831 -15.048,15.048 z" /><path
           inkscape:connector-curvature="0"
           id="path9"
           d="m 41.917242,85.970595 c -0.033,0.231 0,0.891 -0.165,1.485 -0.726,2.574 -1.848,2.871 -3.861,1.056 -2.343,-2.112 -3.729,-4.686 -4.191,-7.821 -0.231,-1.65 0.462,-1.947 1.815,-1.947 3.399,0.099 6.402,3.267 6.402,7.227 z" /><path
           inkscape:connector-curvature="0"
           id="path11"
           d="m 46.273242,91.910595 c -1.221,-0.429 -3.432,0.264 -3.861,-1.353 -0.429,-1.584 0.99,-3.069 2.376,-4.092 2.904,-2.178 6.831,-1.881 9.108,0.627 0.924,1.023 0.858,1.749 -0.264,2.508 -2.178,1.485 -4.62,2.145 -7.359,2.31 z" /><path
           inkscape:connector-curvature="0"
           id="path13"
           d="m 43.831242,69.833595 c -0.033,4.224 -3.96,7.623 -7.722,6.732 -1.584,-0.363 -2.145,-1.089 -1.452,-2.706 1.155,-2.772 3.102,-4.785 5.709,-6.171 2.706,-1.485 3.465,-0.99 3.465,2.145 z" /><path
           inkscape:connector-curvature="0"
           id="path15"
           d="m 52.939242,74.321595 c -3.63,-0.033 -6.105,-2.211 -6.831,-5.577 -0.363,-1.782 0.132,-2.607 2.013,-2.409 3.597,0.396 6.402,2.145 8.58,4.983 0.858,1.122 0.561,1.848 -0.726,2.343 -0.99,0.396 -2.013,0.792 -3.036,0.66 z" /><path
           inkscape:connector-curvature="0"
           id="path17"
           d="m 59.242242,79.172595 c 0.033,2.376 -0.627,4.521 -1.914,6.534 -0.528,0.825 -1.089,0.957 -1.947,0.396 -3.729,-2.442 -3.663,-8.877 0.165,-11.22 2.112,-1.287 2.937,-0.99 3.432,1.452 0.198,0.924 0.198,1.881 0.264,2.838 z" /></g><g
         id="wheel2"><path
           inkscape:connector-curvature="0"
           id="tires2"
           d="m 256.91224,75.707595 c 0,12.441 -9.669,22.11 -22.11,22.11 -12.078,0 -22.176,-10.032 -22.11,-22.044 0.066,-12.507 10.131,-22.407 22.737,-22.143 13.2,0.297 22.044,11.649 21.483,22.077 z m -36.993,0 c 0,8.382 6.6,15.015 14.949,15.048 8.382,0 14.982,-6.6 14.982,-14.982 0,-8.613 -6.501,-15.015 -15.18,-14.982 -8.25,0.033 -14.751,6.6 -14.751,14.916 z" /><path
           inkscape:connector-curvature="0"
           id="path19"
           d="m 243.61324,78.776595 c 0.924,0.066 2.31,0.033 2.937,1.188 0.627,1.122 -0.363,2.112 -0.99,2.97 -1.65,2.31 -3.729,4.059 -6.501,4.983 -1.749,0.594 -2.343,-0.165 -2.508,-1.716 -0.396,-3.795 2.937,-7.392 7.062,-7.425 z" /><path
           inkscape:connector-curvature="0"
           id="path21"
           d="m 227.93824,80.228595 c 3.762,0.066 6.633,2.475 7.161,5.643 0.33,2.079 -0.264,2.673 -2.376,2.409 -2.97,-0.396 -5.445,-1.716 -7.425,-3.927 -1.914,-2.145 -1.584,-3.135 1.155,-3.927 0.627,-0.165 1.287,-0.165 1.485,-0.198 z" /><path
           inkscape:connector-curvature="0"
           id="path23"
           d="m 247.80424,75.377595 c 0.099,1.881 -0.66,2.442 -2.475,1.881 -4.422,-1.353 -6.666,-6.501 -4.29,-10.065 0.924,-1.386 1.782,-1.881 3.168,-0.396 2.244,2.475 3.3,5.346 3.597,8.58 z" /><path
           inkscape:connector-curvature="0"
           id="path25"
           d="m 234.90124,63.002595 c 1.716,-0.198 3.333,0.264 4.917,0.858 1.254,0.495 1.551,1.155 0.858,2.376 -2.178,3.828 -8.382,4.323 -11.088,0.825 -1.32,-1.683 -1.056,-2.64 0.891,-3.399 1.452,-0.495 2.904,-0.825 4.422,-0.66 z" /><path
           inkscape:connector-curvature="0"
           id="path27"
           d="m 229.12624,71.879595 c -0.033,3.564 -1.947,6.072 -4.686,6.897 -1.485,0.462 -2.112,-0.066 -2.277,-1.452 -0.396,-3.465 0.462,-6.6 2.541,-9.372 0.957,-1.287 1.881,-1.254 2.838,0 0.924,1.32 1.518,2.739 1.584,3.927 z" /></g></g></g></svg>