<?xml version="1.0" encoding="UTF-8" standalone="no"?>
<!-- Generator: Adobe Illustrator 18.1.0, SVG Export Plug-In . SVG Version: 6.00 Build 0)  -->

<svg
   xmlns:dc="http://purl.org/dc/elements/1.1/"
   xmlns:cc="http://creativecommons.org/ns#"
   xmlns:rdf="http://www.w3.org/1999/02/22-rdf-syntax-ns#"
   xmlns:svg="http://www.w3.org/2000/svg"
   xmlns="http://www.w3.org/2000/svg"
   xmlns:sodipodi="http://sodipodi.sourceforge.net/DTD/sodipodi-0.dtd"
   xmlns:inkscape="http://www.inkscape.org/namespaces/inkscape"
   version="1.1"
   id="Ebene_1"
   x="0px"
   y="0px"
   viewBox="0 0 294.75582 99.364188"
   enable-background="new 0 0 1004 614.5"
   xml:space="preserve"
   inkscape:version="0.48.5 r10040"
   width="100%"
   height="100%"
   sodipodi:docname="folienhaus_cars-06.svg"><metadata
     id="metadata35"><rdf:RDF><cc:Work
         rdf:about=""><dc:format>image/svg+xml</dc:format><dc:type
           rdf:resource="http://purl.org/dc/dcmitype/StillImage" /></cc:Work></rdf:RDF></metadata><defs
     id="defs33" /><sodipodi:namedview
     pagecolor="#ffffff"
     bordercolor="#666666"
     borderopacity="1"
     objecttolerance="10"
     gridtolerance="10"
     guidetolerance="10"
     inkscape:pageopacity="0"
     inkscape:pageshadow="2"
     inkscape:window-width="1375"
     inkscape:window-height="876"
     id="namedview31"
     showgrid="false"
     fit-margin-top="0"
     fit-margin-left="0"
     fit-margin-right="0"
     fit-margin-bottom="0"
     inkscape:zoom="0.63944223"
     inkscape:cx="-236.49503"
     inkscape:cy="-4.2629474"
     inkscape:window-x="65"
     inkscape:window-y="24"
     inkscape:window-maximized="1"
     inkscape:current-layer="g3" /><g
     id="g3"
     transform="translate(-370.54531,-288.56971)"><path
       d="m 504.91356,288.60271 c 5.841,0.726 11.682,1.254 17.523,2.079 10.692,1.518 20.625,5.016 30.228,9.966 10.989,5.676 22.011,11.22 32.703,17.424 2.607,1.518 5.643,1.089 8.415,1.32 8.448,0.693 16.731,2.145 25.08,3.498 10.56,1.716 20.922,4.125 30.888,8.151 1.848,0.759 3.597,1.716 5.478,2.376 3.762,1.32 5.148,4.257 5.544,7.887 0.198,1.782 0.759,3.201 2.013,4.653 2.739,3.168 2.673,7.194 2.376,11.121 -0.066,0.792 -0.594,1.287 -1.353,1.452 -0.858,0.198 -1.716,0.363 -2.574,0.528 -1.188,0.231 -2.871,-0.627 -3.564,0.627 -0.792,1.419 0.165,3.102 0.264,4.686 0.099,1.254 1.188,1.023 2.046,1.089 0.825,0.066 1.683,0.165 2.013,1.023 0.396,0.99 -0.264,1.683 -0.924,2.277 -2.706,2.508 -5.94,4.158 -9.57,4.587 -7.425,0.891 -14.916,1.155 -22.407,1.551 -2.079,0.132 -2.904,-0.858 -3.069,-2.706 -0.198,-2.31 -0.495,-4.587 -0.561,-6.897 -0.264,-12.771 -10.263,-23.496 -22.803,-24.354 -13.398,-0.957 -24.948,7.755 -27.192,20.427 -0.462,2.706 -0.396,5.346 -0.132,8.052 0.264,2.574 -0.198,5.247 -0.363,7.854 -0.066,1.023 -0.726,1.188 -1.518,0.891 -5.544,-2.244 -11.352,-1.353 -17.061,-1.386 -26.466,-0.099 -52.965,0.033 -79.431,0.066 -9.669,0 -19.305,0 -28.974,0 -3.498,0 -3.531,0 -4.323,-3.498 -1.188,-5.181 -1.881,-10.461 -3.762,-15.51 -3.729,-10.032 -13.431,-15.972 -25.146,-14.949 -9.636,0.825 -18.216,8.844 -19.866,18.612 -0.693,4.092 -0.858,8.217 -1.089,12.342 -0.033,0.66 0.297,1.65 -0.627,1.848 -0.726,0.165 -1.023,-0.693 -1.254,-1.254 -1.023,-2.574 -2.97,-3.795 -5.643,-4.158 -9.372,-1.254 -13.761,-7.293 -15.576,-16.038 -0.825,-3.894 1.749,-5.61 4.158,-7.293 1.881,-1.32 2.871,-2.442 2.079,-4.818 -0.297,-0.924 -0.528,-2.244 0.561,-3.102 0.132,-0.099 0.33,-0.363 0.297,-0.495 -1.155,-5.61 -0.363,-6.171 1.551,-11.55 1.98,-5.577 5.511,-9.768 9.108,-14.058 4.587,-5.511 10.362,-9.636 16.302,-13.53 0.99,-0.66 2.079,-1.056 2.409,-2.442 0.231,-0.957 1.254,-1.122 2.112,-1.353 7.26,-1.815 14.652,-3.069 22.11,-3.828 9.669,-0.99 19.338,-1.815 29.007,-2.805 2.046,-0.198 4.158,0.264 6.171,-0.396 12.837,0.033 25.608,0.033 38.346,0.033 z m 41.151,23.1 c -0.726,-0.66 -1.056,-1.023 -1.419,-1.287 -6.204,-4.29 -12.837,-7.788 -19.965,-10.131 -10.791,-3.564 -22.077,-4.455 -33.396,-4.785 -2.97,-0.099 -3.3,0.198 -2.904,3.069 0.858,6.402 2.046,12.705 4.092,18.843 0.627,1.848 1.782,2.541 3.531,2.607 13.365,0.495 26.73,0.99 40.095,1.452 3.234,0.099 3.267,0 2.706,-3.201 -0.759,-4.521 0.594,-6.171 5.214,-6.402 0.528,-0.033 0.99,-0.066 2.046,-0.165 z m -73.392,7.887 c 2.937,-0.198 5.346,0.099 7.722,-0.33 1.419,-0.231 2.112,-0.825 2.046,-2.31 -0.231,-6.138 -0.99,-12.21 -1.452,-18.315 -0.198,-2.442 -1.65,-3.135 -3.663,-3.135 -2.31,0.033 -4.62,0.231 -6.897,0.429 -7.623,0.66 -15.213,1.32 -22.803,2.013 -2.409,0.231 -4.323,1.287 -5.709,3.399 -2.739,4.224 -5.148,8.613 -6.732,13.398 -0.891,2.739 -0.66,3.069 2.277,3.366 1.023,0.099 2.046,0.396 3.069,0.429 10.89,0.396 21.813,0.726 32.142,1.056 z m -38.973,-18.051 c -0.033,-0.693 -0.264,-0.924 -1.617,-0.825 -5.313,0.396 -10.593,1.287 -15.741,2.64 -1.386,0.363 -1.914,1.122 -1.353,2.673 1.485,4.026 4.488,6.93 7.161,10.032 1.749,2.046 2.64,2.079 4.455,-0.033 3.564,-4.125 4.884,-9.438 7.029,-14.289 0.033,-0.033 0.066,-0.132 0.066,-0.198 z m 218.988,41.745 c -3.465,-4.521 -7.26,-8.448 -13.233,-8.976 -3.102,-0.264 -6.171,-0.759 -9.273,-0.528 -1.221,0.099 -3.003,-0.561 -3.432,0.759 -0.363,1.155 1.254,2.013 2.178,2.838 6.831,6.171 15.576,4.818 23.76,5.907 z m -4.488,16.83 c -2.244,-0.132 -4.389,0.594 -6.633,0.429 -1.716,-0.132 -1.023,0.924 -0.561,1.65 1.617,2.541 6.567,4.224 9.405,3.201 0.759,-0.264 1.122,-0.825 1.287,-1.584 0.726,-2.904 -0.066,-3.762 -3.498,-3.696 z m -145.167,-27.621 c 2.343,-0.132 4.587,0.165 6.765,-0.396 0.561,-0.165 1.089,-0.363 1.056,-1.056 -0.033,-0.66 -0.462,-1.023 -1.089,-1.023 -4.29,-0.165 -8.547,-0.363 -12.837,-0.462 -0.759,-0.033 -1.683,0.297 -1.683,1.32 0,0.858 0.825,1.023 1.518,1.254 2.112,0.66 4.29,0.165 6.27,0.363 z m -60.258,-3.498 c 0,-0.066 0,-0.132 0,-0.198 -1.914,0 -3.795,-0.033 -5.709,0.033 -0.99,0.033 -2.409,-0.132 -2.409,1.254 0,1.188 1.419,0.99 2.244,1.32 0.363,0.132 0.792,0.132 1.188,0.132 3.564,0.099 7.128,0.033 10.692,-0.429 0.693,-0.099 1.584,0.033 1.518,-1.023 -0.066,-0.924 -0.825,-1.056 -1.584,-1.056 -1.98,-0.033 -3.96,-0.033 -5.94,-0.033 z"
       id="car"
       inkscape:connector-curvature="0" /><path
       d="m 600.38256,343.05271 c 11.946,0.033 22.044,10.263 22.011,22.242 -0.033,11.847 -10.362,22.077 -22.077,21.879 -12.342,-0.198 -22.176,-10.032 -22.077,-22.077 0.066,-12.078 10.131,-22.077 22.143,-22.044 z m -0.198,37.818 c 8.976,0.033 15.774,-6.699 15.84,-15.609 0.066,-8.877 -6.732,-15.741 -15.675,-15.84 -8.745,-0.099 -15.741,6.732 -15.807,15.411 -0.033,9.207 6.6,16.005 15.642,16.038 z"
       id="tires2"
       inkscape:connector-curvature="0" /><path
       d="m 396.04656,365.98771 c -0.693,-10.857 8.778,-21.978 21.582,-22.011 12.342,-0.033 22.374,9.834 22.341,22.011 -0.033,12.045 -9.933,21.78 -21.945,21.945 -12.573,0.132 -22.473,-10.725 -21.978,-21.945 z m 21.879,-15.939 c -8.613,-0.033 -15.51,7.029 -15.873,15.51 -0.33,7.557 6.072,16.203 15.675,16.17 9.042,-0.033 15.906,-6.534 16.005,-15.609 0.099,-10.23 -8.184,-16.203 -15.807,-16.071 z"
       id="tires1"
       inkscape:connector-curvature="0" /><path
       d="m 600.25056,350.67571 c 0.429,0.066 0.759,0.033 1.056,0.132 1.749,0.594 4.686,0 4.95,1.947 0.297,2.343 -1.848,4.422 -3.201,6.435 -0.693,1.023 -5.115,0 -5.775,-1.188 -0.627,-1.122 -1.188,-2.244 -1.782,-3.366 -1.287,-2.475 -1.155,-2.739 1.584,-3.399 1.056,-0.264 2.178,-0.396 3.168,-0.561 z"
       id="path11"
       inkscape:connector-curvature="0" /><path
       d="m 585.99456,364.83271 c 0.066,-2.706 0.825,-5.148 2.211,-7.458 0.891,-1.485 1.815,-1.947 3.102,-0.429 0.627,0.726 1.452,1.287 2.013,2.046 0.759,0.99 2.442,1.419 1.848,3.234 -0.693,2.112 -1.023,4.389 -4.059,4.323 -0.759,-0.033 -1.551,0.363 -2.31,0.561 -2.343,0.528 -2.904,0.066 -2.805,-2.277 z"
       id="path13"
       inkscape:connector-curvature="0" /><path
       d="m 603.48456,379.12171 c -1.056,0.198 -1.353,-0.33 -1.584,-1.122 -0.627,-2.013 -0.396,-4.125 -0.495,-6.171 -0.066,-1.155 3.828,-3.135 4.95,-2.607 1.65,0.792 3.234,1.683 4.851,2.541 0.825,0.429 1.254,0.99 0.594,1.914 -2.112,2.871 -4.983,4.62 -8.316,5.445 z"
       id="path15"
       inkscape:connector-curvature="0" /><path
       d="m 610.61256,366.84571 c -2.046,0.363 -4.026,-0.396 -4.851,-3.399 -0.297,-1.089 -0.528,-1.914 0.297,-2.805 0.528,-0.594 0.957,-1.254 1.452,-1.881 2.739,-3.63 3.531,-3.564 5.709,0.561 0.825,1.551 1.419,3.168 1.683,4.917 0.297,1.98 0.033,3.201 -2.376,2.64 -0.396,-0.099 -0.792,-0.033 -1.914,-0.033 z"
       id="path17"
       inkscape:connector-curvature="0" /><path
       d="m 598.86456,372.05971 c -0.264,2.013 -0.462,3.762 -0.693,5.478 -0.165,1.254 -0.66,1.815 -2.079,1.32 -3.036,-1.023 -5.511,-2.739 -7.458,-5.313 -0.825,-1.089 -0.66,-1.848 0.594,-2.442 1.584,-0.759 3.135,-1.584 4.719,-2.277 1.452,-0.561 4.95,1.98 4.917,3.234 z"
       id="path19"
       inkscape:connector-curvature="0" /><path
       d="m 425.58156,367.43971 c 1.65,0.165 3.234,0.33 4.785,0.495 1.287,0.132 1.584,0.924 1.221,2.046 -0.957,3.036 -2.64,5.577 -5.247,7.491 -1.353,0.99 -2.079,0.693 -2.673,-0.759 -0.363,-0.891 -0.858,-1.716 -1.287,-2.574 -1.386,-2.739 -1.056,-4.422 1.188,-6.336 0.66,-0.528 1.386,-0.297 2.013,-0.363 z"
       id="path21"
       inkscape:connector-curvature="0" /><path
       d="m 403.63656,365.65771 c 0.033,-0.363 0.033,-0.924 0.099,-1.485 0.231,-3.003 0.825,-3.366 3.531,-2.178 0.594,0.264 1.221,0.429 1.749,0.726 1.155,0.627 2.97,0.495 3.069,2.475 0.132,2.112 0.627,4.356 -2.079,5.379 -0.132,0.066 -0.264,0.165 -0.396,0.264 -4.323,2.904 -5.247,2.475 -5.874,-2.805 -0.066,-0.759 -0.066,-1.485 -0.099,-2.376 z"
       id="path23"
       inkscape:connector-curvature="0" /><path
       d="m 417.03456,351.63271 c 1.65,-0.099 2.442,0.462 2.013,2.244 -0.231,0.924 -0.561,1.914 -0.429,2.805 0.495,3.465 -2.409,3.465 -4.323,4.455 -0.561,0.297 -1.056,-0.066 -1.518,-0.429 -1.32,-1.122 -2.607,-2.31 -3.993,-3.399 -1.089,-0.858 -1.155,-1.551 -0.033,-2.442 2.475,-1.947 5.247,-2.937 8.283,-3.234 z"
       id="path25"
       inkscape:connector-curvature="0" /><path
       d="m 424.36056,353.71171 c 2.046,0.066 7.326,5.412 7.524,7.656 0.099,0.99 -0.594,1.254 -1.254,1.452 -1.584,0.528 -3.168,1.056 -4.785,1.452 -1.815,0.462 -4.851,-2.607 -4.389,-4.422 0.429,-1.683 0.99,-3.333 1.485,-5.016 0.198,-0.627 0.429,-1.188 1.419,-1.122 z"
       id="path27"
       inkscape:connector-curvature="0" /><path
       d="m 416.53956,380.21071 c -1.65,-0.066 -4.059,-0.792 -6.27,-2.145 -1.254,-0.759 -1.452,-1.518 -0.33,-2.607 1.023,-0.99 1.947,-2.112 2.904,-3.168 0.561,-0.627 1.155,-1.782 2.046,-1.188 1.419,0.924 3.927,-0.132 4.455,2.442 0.231,1.089 0.594,2.145 0.891,3.201 0.924,3.234 0.693,3.531 -3.696,3.465 z"
       id="path29"
       inkscape:connector-curvature="0" /></g></svg>